<svg version="1.1" id="Layer_1" xmlns="http://www.w3.org/2000/svg" xmlns:xlink="http://www.w3.org/1999/xlink" x="0px" y="0px"
	 width="100%" viewBox="0 0 512 512" enable-background="new 0 0 512 512" xml:space="preserve">
<path fill="#000000" opacity="1.000000" stroke="none" 
	d="
M1.000000,192.000000 
	C1.000000,128.000000 1.000000,64.500000 1.000000,1.000000 
	C171.666672,1.000000 342.333344,1.000000 513.000000,1.000000 
	C513.000000,171.666672 513.000000,342.333344 513.000000,513.000000 
	C342.333344,513.000000 171.666672,513.000000 1.000000,513.000000 
	C1.000000,406.166656 1.000000,299.333344 1.000000,192.000000 
M17.000000,268.469269 
	C17.251490,283.022034 19.705580,297.227814 22.887022,311.420135 
	C28.747173,337.562103 38.835270,361.886658 53.061787,384.483276 
	C66.620865,406.019745 83.029404,425.074646 102.719223,441.384491 
	C116.488052,452.789764 130.922455,463.241394 147.024643,470.771973 
	C162.069077,477.807861 177.750046,483.700562 193.567490,488.805481 
	C209.966629,494.098114 227.064926,496.629181 244.374695,496.972992 
	C252.344070,497.131287 260.341827,497.379791 268.286163,496.906586 
	C278.886475,496.275208 289.588867,495.743103 299.994904,493.809387 
	C320.234406,490.048279 339.759033,483.755402 358.531433,475.117340 
	C383.537903,463.610687 405.569489,447.840485 425.396790,428.945435 
	C431.564789,423.067474 437.431915,416.696106 442.453430,409.831299 
	C451.683350,397.213409 460.922089,384.493561 468.797974,371.021637 
	C478.288757,354.787445 485.064362,337.121826 489.413452,318.827515 
	C492.812286,304.530243 495.904327,289.903381 496.642426,275.297119 
	C497.505798,258.211517 496.465942,240.908234 494.732880,223.853729 
	C493.487701,211.599899 490.214539,199.475464 487.016846,187.514999 
	C482.398438,170.240372 475.125183,154.025101 466.220276,138.463623 
	C458.067200,124.215965 448.973175,110.653183 437.891357,98.615944 
	C429.460602,89.458313 420.168823,81.072479 411.023254,72.598930 
	C398.483582,60.980721 383.955078,52.152386 369.019379,44.068031 
	C353.023956,35.410042 336.042114,28.918640 318.487946,24.338335 
	C301.478149,19.900078 284.138092,16.754967 266.416260,17.029385 
	C254.998489,17.206186 243.499222,16.911745 232.192383,18.198498 
	C219.221848,19.674585 206.237991,21.936234 193.591080,25.156996 
	C170.598145,31.012564 149.099915,40.616928 129.038589,53.414879 
	C107.694412,67.031204 88.859413,83.397537 72.569977,102.821999 
	C61.507076,116.014038 51.985279,130.159225 43.984840,145.354294 
	C35.886620,160.735031 29.577538,176.832779 24.986187,193.606705 
	C20.424843,210.270981 17.478239,227.190216 17.033251,244.482803 
	C16.836134,252.142929 17.000000,259.812317 17.000000,268.469269 
z"/>
<path fill="#FFFFFF" opacity="1.000000" stroke="none" 
	d="
M17.000000,267.973389 
	C17.000000,259.812317 16.836134,252.142929 17.033251,244.482803 
	C17.478239,227.190216 20.424843,210.270981 24.986187,193.606705 
	C29.577538,176.832779 35.886620,160.735031 43.984840,145.354294 
	C51.985279,130.159225 61.507076,116.014038 72.569977,102.821999 
	C88.859413,83.397537 107.694412,67.031204 129.038589,53.414879 
	C149.099915,40.616928 170.598145,31.012564 193.591080,25.156996 
	C206.237991,21.936234 219.221848,19.674585 232.192383,18.198498 
	C243.499222,16.911745 254.998489,17.206186 266.416260,17.029385 
	C284.138092,16.754967 301.478149,19.900078 318.487946,24.338335 
	C336.042114,28.918640 353.023956,35.410042 369.019379,44.068031 
	C383.955078,52.152386 398.483582,60.980721 411.023254,72.598930 
	C420.168823,81.072479 429.460602,89.458313 437.891357,98.615944 
	C448.973175,110.653183 458.067200,124.215965 466.220276,138.463623 
	C475.125183,154.025101 482.398438,170.240372 487.016846,187.514999 
	C490.214539,199.475464 493.487701,211.599899 494.732880,223.853729 
	C496.465942,240.908234 497.505798,258.211517 496.642426,275.297119 
	C495.904327,289.903381 492.812286,304.530243 489.413452,318.827515 
	C485.064362,337.121826 478.288757,354.787445 468.797974,371.021637 
	C460.922089,384.493561 451.683350,397.213409 442.453430,409.831299 
	C437.431915,416.696106 431.564789,423.067474 425.396790,428.945435 
	C405.569489,447.840485 383.537903,463.610687 358.531433,475.117340 
	C339.759033,483.755402 320.234406,490.048279 299.994904,493.809387 
	C289.588867,495.743103 278.886475,496.275208 268.286163,496.906586 
	C260.341827,497.379791 252.344070,497.131287 244.374695,496.972992 
	C227.064926,496.629181 209.966629,494.098114 193.567490,488.805481 
	C177.750046,483.700562 162.069077,477.807861 147.024643,470.771973 
	C130.922455,463.241394 116.488052,452.789764 102.719223,441.384491 
	C83.029404,425.074646 66.620865,406.019745 53.061787,384.483276 
	C38.835270,361.886658 28.747173,337.562103 22.887022,311.420135 
	C19.705580,297.227814 17.251490,283.022034 17.000000,267.973389 
M443.037933,165.406815 
	C441.346252,162.132172 439.774353,158.788910 437.943665,155.593903 
	C424.851959,132.745193 408.486816,112.761742 387.840393,96.154182 
	C369.048248,81.038193 348.564606,69.259697 325.821594,61.407333 
	C304.825256,54.158035 283.360596,49.399788 260.962250,49.982471 
	C256.320312,50.103226 251.647797,49.692307 247.032486,50.063068 
	C236.942871,50.873600 226.696213,51.150677 216.845627,53.223270 
	C195.418747,57.731544 174.928131,65.050293 155.762650,75.961967 
	C132.239288,89.354759 111.798180,106.226814 94.973122,127.487206 
	C77.797119,149.191071 65.100555,173.171402 57.600830,199.850311 
	C52.871586,216.673737 49.525341,233.701721 49.982533,251.300980 
	C50.098961,255.782715 49.712376,260.292267 50.057205,264.750366 
	C50.889050,275.504730 51.064831,286.431854 53.224224,296.935944 
	C57.633148,318.382507 65.025131,338.828949 75.903488,358.041565 
	C89.422234,381.917389 106.475189,402.615356 128.060516,419.556427 
	C146.561371,434.076752 166.773621,445.488922 189.104767,453.027405 
	C213.756516,461.349243 238.957397,466.000519 265.080048,463.958679 
	C274.508148,463.221741 283.914185,462.133881 293.303986,460.990051 
	C311.857788,458.729828 329.261963,452.472412 345.935181,444.433685 
	C374.135040,430.837555 398.384460,412.157928 418.122192,387.553986 
	C435.910400,365.380219 448.892456,340.841125 456.638855,313.609100 
	C461.179779,297.645721 464.399841,281.360382 464.020294,264.585754 
	C463.892151,258.923218 464.338440,253.230606 463.926300,247.595322 
	C463.175934,237.335526 462.800476,226.943939 460.789001,216.903778 
	C457.254669,199.262466 451.511841,182.219742 443.037933,165.406815 
z"/>
<path fill="#000000" opacity="1.000000" stroke="none" 
	d="
M443.279175,165.711060 
	C451.511841,182.219742 457.254669,199.262466 460.789001,216.903778 
	C462.800476,226.943939 463.175934,237.335526 463.926300,247.595322 
	C464.338440,253.230606 463.892151,258.923218 464.020294,264.585754 
	C464.399841,281.360382 461.179779,297.645721 456.638855,313.609100 
	C448.892456,340.841125 435.910400,365.380219 418.122192,387.553986 
	C398.384460,412.157928 374.135040,430.837555 345.935181,444.433685 
	C329.261963,452.472412 311.857788,458.729828 293.303986,460.990051 
	C283.914185,462.133881 274.508148,463.221741 265.080048,463.958679 
	C238.957397,466.000519 213.756516,461.349243 189.104767,453.027405 
	C166.773621,445.488922 146.561371,434.076752 128.060516,419.556427 
	C106.475189,402.615356 89.422234,381.917389 75.903488,358.041565 
	C65.025131,338.828949 57.633148,318.382507 53.224224,296.935944 
	C51.064831,286.431854 50.889050,275.504730 50.057205,264.750366 
	C49.712376,260.292267 50.098961,255.782715 49.982533,251.300980 
	C49.525341,233.701721 52.871586,216.673737 57.600830,199.850311 
	C65.100555,173.171402 77.797119,149.191071 94.973122,127.487206 
	C111.798180,106.226814 132.239288,89.354759 155.762650,75.961967 
	C174.928131,65.050293 195.418747,57.731544 216.845627,53.223270 
	C226.696213,51.150677 236.942871,50.873600 247.032486,50.063068 
	C251.647797,49.692307 256.320312,50.103226 260.962250,49.982471 
	C283.360596,49.399788 304.825256,54.158035 325.821594,61.407333 
	C348.564606,69.259697 369.048248,81.038193 387.840393,96.154182 
	C408.486816,112.761742 424.851959,132.745193 437.943665,155.593903 
	C439.774353,158.788910 441.346252,162.132172 443.279175,165.711060 
M193.001450,313.086548 
	C194.808411,318.371063 195.779556,324.154755 198.580963,328.845337 
	C206.589493,342.254669 218.597824,350.582642 233.924698,354.042084 
	C241.019974,355.643555 241.000000,355.732147 241.000015,363.309875 
	C241.000015,365.808746 241.249329,368.337463 240.954056,370.800964 
	C240.002701,378.738373 246.974091,385.044159 253.792465,385.920044 
	C264.937256,387.351562 270.749695,382.748688 272.843353,374.207672 
	C274.032959,369.354767 273.788727,364.124207 273.948029,359.056091 
	C274.027069,356.541504 274.580658,355.494781 277.431824,354.867554 
	C291.787292,351.709625 304.095154,344.931091 312.994781,332.881744 
	C322.573395,319.913116 322.836456,305.084717 319.811584,290.339569 
	C315.721985,270.404388 302.318726,257.430023 284.409668,249.324219 
	C273.506042,244.389114 261.834473,241.170685 250.588715,236.964951 
	C242.324646,233.874313 233.657822,231.134415 228.621765,223.050507 
	C224.437698,216.334229 223.961868,201.569626 232.282318,196.260529 
	C242.806610,189.545197 254.505936,189.124649 266.292908,190.296234 
	C270.620026,190.726318 274.971039,192.600998 278.942017,194.563599 
	C286.303833,198.202072 288.333344,205.068146 289.065308,212.708374 
	C289.732422,219.671722 297.314758,225.761642 304.896973,225.952209 
	C311.762726,226.124771 320.335266,219.704056 320.929840,213.414413 
	C321.981354,202.290802 320.163330,191.730133 313.758514,182.235779 
	C306.022888,170.768661 294.576111,164.544388 282.050354,160.113754 
	C274.152802,157.320221 274.103882,157.711014 273.978302,148.849472 
	C273.803741,136.533600 268.388214,127.826935 254.656937,128.851059 
	C249.162247,129.260864 240.464218,134.981277 240.954468,142.873734 
	C241.212173,147.022491 241.181473,151.213226 240.889877,155.357483 
	C240.801407,156.614746 239.671738,158.427475 238.565079,158.882935 
	C231.039062,161.980438 222.996201,164.045776 215.880783,167.862335 
	C206.377350,172.959824 199.891174,181.060242 195.780838,191.365967 
	C192.656128,199.200500 192.720291,207.087265 193.098053,215.035568 
	C193.698288,227.664612 198.387100,238.813385 206.827286,248.338821 
	C216.742889,259.529388 229.910751,265.108612 243.541183,270.038086 
	C256.610596,274.764648 270.202271,278.016693 281.728821,286.729584 
	C288.983185,292.213165 291.450623,312.194672 281.217865,318.020966 
	C269.070526,324.937317 256.340454,326.418274 243.054718,322.513245 
	C233.366974,319.665771 225.072601,315.290253 225.916168,302.974945 
	C226.009735,301.608795 225.324188,300.170990 224.914780,298.791687 
	C222.574326,290.906769 214.819275,286.657776 204.813751,288.044983 
	C199.235962,288.818329 191.976776,295.532806 192.939331,303.173035 
	C193.311218,306.124817 193.000046,309.162689 193.001450,313.086548 
z"/>
<path fill="#FFFFFF" opacity="1.000000" stroke="none" 
	d="
M193.000763,312.623932 
	C193.000046,309.162689 193.311218,306.124817 192.939331,303.173035 
	C191.976776,295.532806 199.235962,288.818329 204.813751,288.044983 
	C214.819275,286.657776 222.574326,290.906769 224.914780,298.791687 
	C225.324188,300.170990 226.009735,301.608795 225.916168,302.974945 
	C225.072601,315.290253 233.366974,319.665771 243.054718,322.513245 
	C256.340454,326.418274 269.070526,324.937317 281.217865,318.020966 
	C291.450623,312.194672 288.983185,292.213165 281.728821,286.729584 
	C270.202271,278.016693 256.610596,274.764648 243.541183,270.038086 
	C229.910751,265.108612 216.742889,259.529388 206.827286,248.338821 
	C198.387100,238.813385 193.698288,227.664612 193.098053,215.035568 
	C192.720291,207.087265 192.656128,199.200500 195.780838,191.365967 
	C199.891174,181.060242 206.377350,172.959824 215.880783,167.862335 
	C222.996201,164.045776 231.039062,161.980438 238.565079,158.882935 
	C239.671738,158.427475 240.801407,156.614746 240.889877,155.357483 
	C241.181473,151.213226 241.212173,147.022491 240.954468,142.873734 
	C240.464218,134.981277 249.162247,129.260864 254.656937,128.851059 
	C268.388214,127.826935 273.803741,136.533600 273.978302,148.849472 
	C274.103882,157.711014 274.152802,157.320221 282.050354,160.113754 
	C294.576111,164.544388 306.022888,170.768661 313.758514,182.235779 
	C320.163330,191.730133 321.981354,202.290802 320.929840,213.414413 
	C320.335266,219.704056 311.762726,226.124771 304.896973,225.952209 
	C297.314758,225.761642 289.732422,219.671722 289.065308,212.708374 
	C288.333344,205.068146 286.303833,198.202072 278.942017,194.563599 
	C274.971039,192.600998 270.620026,190.726318 266.292908,190.296234 
	C254.505936,189.124649 242.806610,189.545197 232.282318,196.260529 
	C223.961868,201.569626 224.437698,216.334229 228.621765,223.050507 
	C233.657822,231.134415 242.324646,233.874313 250.588715,236.964951 
	C261.834473,241.170685 273.506042,244.389114 284.409668,249.324219 
	C302.318726,257.430023 315.721985,270.404388 319.811584,290.339569 
	C322.836456,305.084717 322.573395,319.913116 312.994781,332.881744 
	C304.095154,344.931091 291.787292,351.709625 277.431824,354.867554 
	C274.580658,355.494781 274.027069,356.541504 273.948029,359.056091 
	C273.788727,364.124207 274.032959,369.354767 272.843353,374.207672 
	C270.749695,382.748688 264.937256,387.351562 253.792465,385.920044 
	C246.974091,385.044159 240.002701,378.738373 240.954056,370.800964 
	C241.249329,368.337463 241.000015,365.808746 241.000015,363.309875 
	C241.000000,355.732147 241.019974,355.643555 233.924698,354.042084 
	C218.597824,350.582642 206.589493,342.254669 198.580963,328.845337 
	C195.779556,324.154755 194.808411,318.371063 193.000763,312.623932 
z"/>
</svg>