<svg version="1.1" id="Layer_1" xmlns="http://www.w3.org/2000/svg" xmlns:xlink="http://www.w3.org/1999/xlink" x="0px" y="0px"
	 width="100%" viewBox="0 0 512 512" enable-background="new 0 0 512 512" xml:space="preserve">
<path fill="#000000" opacity="1.000000" stroke="none" 
	d="
M298.000000,513.000000 
	C198.690781,513.000000 99.881554,513.000000 1.036167,513.000000 
	C1.036167,342.399078 1.036167,171.798172 1.036167,1.098622 
	C171.559235,1.098622 342.118561,1.098622 512.838928,1.098622 
	C512.838928,171.666550 512.838928,342.333252 512.838928,513.000000 
	C441.464813,513.000000 369.982391,513.000000 298.000000,513.000000 
M461.525421,401.977386 
	C462.690735,400.239563 464.012085,398.585449 464.996674,396.750610 
	C473.042572,381.756775 481.785858,367.076965 488.850708,351.630951 
	C499.612488,328.102356 505.177002,302.881775 506.694550,277.215912 
	C508.013458,254.910538 507.818268,232.453110 503.141083,210.240555 
	C498.985291,190.504211 493.487183,171.324554 485.020752,152.996796 
	C473.167358,127.337105 457.844879,103.982735 438.079559,83.780884 
	C429.365295,74.874146 419.889587,66.620956 410.161499,58.816525 
	C390.042725,42.676079 367.469604,30.775068 343.344574,21.713959 
	C321.873566,13.649675 299.616608,8.512461 276.861755,7.320694 
	C259.114960,6.391220 241.140274,7.534389 223.413742,9.262898 
	C210.658752,10.506637 198.032730,13.786149 185.550888,16.952705 
	C166.307434,21.834635 148.544693,30.424479 131.349045,40.219719 
	C114.194252,49.991692 98.331749,61.591076 84.295387,75.417946 
	C75.178947,84.398323 66.748718,94.139458 58.605488,104.029221 
	C45.004539,120.547241 34.710884,139.232056 26.224972,158.729919 
	C15.546902,183.264648 8.885146,209.200836 7.354370,235.846527 
	C6.230697,255.405899 7.035010,275.309479 9.377495,294.771088 
	C11.888674,315.634155 18.064964,335.827545 26.548647,355.317444 
	C38.088314,381.828003 53.344795,405.820465 72.747887,427.113953 
	C86.024612,441.684174 101.078423,454.325409 117.584740,465.194977 
	C140.017059,479.966827 163.935593,491.468231 189.934723,498.463837 
	C207.384796,503.159149 225.076706,506.623108 243.176743,506.897278 
	C256.084473,507.092865 269.107086,507.217865 281.895935,505.766479 
	C296.460510,504.113647 310.969391,501.288116 325.238617,497.870544 
	C348.069122,492.402466 369.242798,482.549530 388.873749,469.843567 
	C400.949860,462.027405 412.189545,452.870911 423.496796,443.926880 
	C438.278656,432.234314 449.940247,417.613953 461.525421,401.977386 
z"/>
<path fill="#FFFFFF" opacity="1.000000" stroke="none" 
	d="
M461.263245,402.237854 
	C449.940247,417.613953 438.278656,432.234314 423.496796,443.926880 
	C412.189545,452.870911 400.949860,462.027405 388.873749,469.843567 
	C369.242798,482.549530 348.069122,492.402466 325.238617,497.870544 
	C310.969391,501.288116 296.460510,504.113647 281.895935,505.766479 
	C269.107086,507.217865 256.084473,507.092865 243.176743,506.897278 
	C225.076706,506.623108 207.384796,503.159149 189.934723,498.463837 
	C163.935593,491.468231 140.017059,479.966827 117.584740,465.194977 
	C101.078423,454.325409 86.024612,441.684174 72.747887,427.113953 
	C53.344795,405.820465 38.088314,381.828003 26.548647,355.317444 
	C18.064964,335.827545 11.888674,315.634155 9.377495,294.771088 
	C7.035010,275.309479 6.230697,255.405899 7.354370,235.846527 
	C8.885146,209.200836 15.546902,183.264648 26.224972,158.729919 
	C34.710884,139.232056 45.004539,120.547241 58.605488,104.029221 
	C66.748718,94.139458 75.178947,84.398323 84.295387,75.417946 
	C98.331749,61.591076 114.194252,49.991692 131.349045,40.219719 
	C148.544693,30.424479 166.307434,21.834635 185.550888,16.952705 
	C198.032730,13.786149 210.658752,10.506637 223.413742,9.262898 
	C241.140274,7.534389 259.114960,6.391220 276.861755,7.320694 
	C299.616608,8.512461 321.873566,13.649675 343.344574,21.713959 
	C367.469604,30.775068 390.042725,42.676079 410.161499,58.816525 
	C419.889587,66.620956 429.365295,74.874146 438.079559,83.780884 
	C457.844879,103.982735 473.167358,127.337105 485.020752,152.996796 
	C493.487183,171.324554 498.985291,190.504211 503.141083,210.240555 
	C507.818268,232.453110 508.013458,254.910538 506.694550,277.215912 
	C505.177002,302.881775 499.612488,328.102356 488.850708,351.630951 
	C481.785858,367.076965 473.042572,381.756775 464.996674,396.750610 
	C464.012085,398.585449 462.690735,400.239563 461.263245,402.237854 
M201.661804,136.030838 
	C200.225784,136.766159 198.778702,137.480728 197.355438,138.239990 
	C181.121674,146.900116 169.710495,159.467316 163.821701,177.262634 
	C159.529449,190.233398 159.197632,203.172424 160.994659,216.427902 
	C163.300079,233.433533 171.692307,246.768539 185.280075,257.032562 
	C200.697388,268.678589 218.928070,273.286957 237.144928,278.036987 
	C250.318161,281.471863 263.790955,284.022400 276.009888,290.480835 
	C288.666931,297.170837 289.659088,313.423370 277.507874,320.904755 
	C273.415070,323.424591 268.420563,324.589966 263.725189,325.997375 
	C254.962875,328.623749 246.670563,326.622009 238.938553,322.376740 
	C230.722702,317.865814 227.338593,310.228943 226.788788,301.245544 
	C203.038773,301.245544 179.602844,301.245544 156.157974,301.245544 
	C156.848511,321.717041 161.917953,340.535858 175.596298,355.958160 
	C189.989609,372.186646 208.982025,380.306641 230.239014,384.371094 
	C230.239014,393.380554 230.239014,402.128082 230.239014,410.671082 
	C248.724808,410.671082 266.797668,410.671082 285.071533,410.671082 
	C285.071533,401.706787 285.071533,393.069489 285.071533,384.257477 
	C297.206726,382.278534 308.522369,378.334412 319.082489,372.401550 
	C331.399414,365.481659 341.274200,356.134796 348.142029,343.558197 
	C357.485901,326.447266 358.864380,308.346954 356.015320,289.530640 
	C352.786041,268.203125 340.103912,253.848419 322.037018,243.555054 
	C304.220764,233.404495 284.329407,229.196182 264.797150,224.030823 
	C254.701767,221.361053 244.549133,218.925262 235.731354,212.964523 
	C230.136673,209.182556 226.440872,199.168900 231.718506,192.501785 
	C235.711807,187.457153 240.625656,185.762451 246.527710,184.747391 
	C254.439697,183.386642 261.960022,183.589325 269.369080,187.031143 
	C277.462738,190.790955 280.053650,197.934341 281.286133,205.674530 
	C304.052765,205.674530 326.461273,205.674530 349.451721,205.674530 
	C348.945801,199.920975 348.839722,194.474289 347.928009,189.165985 
	C345.496826,175.010681 339.476105,162.549133 329.553986,152.023666 
	C317.788910,139.543198 302.796173,133.069366 286.558624,129.166809 
	C283.393311,128.406067 282.943390,127.189102 282.972687,124.575714 
	C283.052307,117.471832 283.000031,110.366463 283.000031,103.265427 
	C264.403442,103.265427 246.331772,103.265427 227.999969,103.265427 
	C227.999969,110.500160 227.845718,117.477531 228.068481,124.442841 
	C228.171677,127.669289 226.619995,128.335205 223.912338,129.096451 
	C216.683777,131.128784 209.589401,133.638336 201.661804,136.030838 
z"/>
<path fill="#000000" opacity="1.000000" stroke="none" 
	d="
M202.051743,135.994522 
	C209.589401,133.638336 216.683777,131.128784 223.912338,129.096451 
	C226.619995,128.335205 228.171677,127.669289 228.068481,124.442841 
	C227.845718,117.477531 227.999969,110.500160 227.999969,103.265427 
	C246.331772,103.265427 264.403442,103.265427 283.000031,103.265427 
	C283.000031,110.366463 283.052307,117.471832 282.972687,124.575714 
	C282.943390,127.189102 283.393311,128.406067 286.558624,129.166809 
	C302.796173,133.069366 317.788910,139.543198 329.553986,152.023666 
	C339.476105,162.549133 345.496826,175.010681 347.928009,189.165985 
	C348.839722,194.474289 348.945801,199.920975 349.451721,205.674530 
	C326.461273,205.674530 304.052765,205.674530 281.286133,205.674530 
	C280.053650,197.934341 277.462738,190.790955 269.369080,187.031143 
	C261.960022,183.589325 254.439697,183.386642 246.527710,184.747391 
	C240.625656,185.762451 235.711807,187.457153 231.718506,192.501785 
	C226.440872,199.168900 230.136673,209.182556 235.731354,212.964523 
	C244.549133,218.925262 254.701767,221.361053 264.797150,224.030823 
	C284.329407,229.196182 304.220764,233.404495 322.037018,243.555054 
	C340.103912,253.848419 352.786041,268.203125 356.015320,289.530640 
	C358.864380,308.346954 357.485901,326.447266 348.142029,343.558197 
	C341.274200,356.134796 331.399414,365.481659 319.082489,372.401550 
	C308.522369,378.334412 297.206726,382.278534 285.071533,384.257477 
	C285.071533,393.069489 285.071533,401.706787 285.071533,410.671082 
	C266.797668,410.671082 248.724808,410.671082 230.239014,410.671082 
	C230.239014,402.128082 230.239014,393.380554 230.239014,384.371094 
	C208.982025,380.306641 189.989609,372.186646 175.596298,355.958160 
	C161.917953,340.535858 156.848511,321.717041 156.157974,301.245544 
	C179.602844,301.245544 203.038773,301.245544 226.788788,301.245544 
	C227.338593,310.228943 230.722702,317.865814 238.938553,322.376740 
	C246.670563,326.622009 254.962875,328.623749 263.725189,325.997375 
	C268.420563,324.589966 273.415070,323.424591 277.507874,320.904755 
	C289.659088,313.423370 288.666931,297.170837 276.009888,290.480835 
	C263.790955,284.022400 250.318161,281.471863 237.144928,278.036987 
	C218.928070,273.286957 200.697388,268.678589 185.280075,257.032562 
	C171.692307,246.768539 163.300079,233.433533 160.994659,216.427902 
	C159.197632,203.172424 159.529449,190.233398 163.821701,177.262634 
	C169.710495,159.467316 181.121674,146.900116 197.355438,138.239990 
	C198.778702,137.480728 200.225784,136.766159 202.051743,135.994522 
z"/>
</svg>